# xmcd CD database file
#
# Track frame offsets:
#	150
#	8255
#	20985
#	47805
#
# Disc length: 991 seconds
#
# Revision: 0
# Processed by: cddbd v1.5.1PL0 Copyright (c) Steve Scherf et al.
# Submitted via: CDex 1.51
#
DISCID=2603dd04
DTITLE=月野うさぎ(三石琴乃) - 美少女戦士セーラームーンR セーラームーン
DYEAR=1994
DGENRE=General Soundtrack
TTITLE0=プロローグ
TTITLE1=ポエム
TTITLE2=愛はエナジー
TTITLE3=愛はエナジー (カラオケ)
EXTD=YEAR: 1994
EXTT0=
EXTT1=
EXTT2=
EXTT3=
PLAYORDER=
